<svg xmlns="http://www.w3.org/2000/svg" xmlns:xlink="http://www.w3.org/1999/xlink" viewBox="0 0 202.78 51.92"><defs><linearGradient id="a" x1="461.41" y1="528.1" x2="418.02" y2="503.05" gradientTransform="matrix(1, 0, 0, -1, 0, 1026)" gradientUnits="userSpaceOnUse"><stop offset="0.01" stop-color="#ee5c17"/><stop offset="1" stop-color="#ee9604"/></linearGradient></defs><title>Enscape logo</title><path d="M437,486l-26.37,15.22,9.31,25L437,538l17-11.69,3.47-9.28L437,529.11l-10.84-6.4-3.71-11L437,520.08l23.86-13.79v0l.8-.46,1.7-4.55Zm0,25.08-15.51-9,15.51-9,15.51,9Z" transform="translate(-410.61 -486.04)" style="fill:url(#a)"/><path d="M517.62,517.59c.28,2.62,2.53,3.86,5.49,3.86,2.75,0,4.41-1.08,4.41-3.27,0-2.58-2.31-3-4.62-3.47-.43-.08-.86-.17-1.27-.26-3-.68-6.66-1.85-6.66-6.26,0-4,3-6.14,7.59-6.14,4.17,0,7.16,1.73,8.21,5.46l-3.24.86c-.59-2.1-2.16-3.3-5-3.3s-4.1,1.14-4.1,3c0,2.5,2.5,3,5.58,3.64s7,1.73,7,6.48c0,4.17-2.93,6.29-7.87,6.29-3.67,0-7.87-1.17-8.76-6Zm-28.48-15.12H474.21v21.6h15V520.9H477.6v-6.42h8.86V511.3H477.6v-5.65h11.54Zm7,5.58h.06l11.51,16h3.46v-21.6h-3.39v10.74c0,2.19,0,4.51.06,5v.09h-.09l-11.48-15.8h-3.46v21.6h3.39V513.37c0-2.45-.05-4.78-.06-5.23Zm48,16.41a10.63,10.63,0,0,0,10.18-6.57L551,517a7.49,7.49,0,0,1-7,4.26c-4.29,0-7.53-3.09-7.53-8s3.09-8,7.59-8a7.4,7.4,0,0,1,6.66,3.7l3.36-.89c-1.42-3.3-4.94-6-9.9-6a10.7,10.7,0,0,0-11.14,11.17C533.08,520,537.86,524.48,544.18,524.48ZM561.43,519l-2,5h-3.58l8.92-21.6h3.8l8.89,21.6h-3.64l-2-5Zm7-8.3-.58-1.44c-.61-1.52-1.19-2.95-1.21-3h-.09s-1,2.5-1.82,4.41L562.67,516h7.87Zm27-1.3c0-4.5-3.09-7-8.21-7h-7v21.6h3.39v-7.68h3.64C592.35,516.39,595.43,513.8,595.43,509.45Zm-3.39,0c0,2.5-1.57,3.92-4.72,3.92h-3.73v-7.81h3.73C590.34,505.59,592,506.89,592,509.48Zm6.32-7H613.3v3.18H601.76v5.65h8.85v3.18h-8.85v6.42h11.63v3.18h-15Z" transform="translate(-410.61 -486.04)" style="fill:#1a1a1a"/></svg>