<svg id="Layer_1" data-name="Layer 1" xmlns="http://www.w3.org/2000/svg" viewBox="0 0 321.5 122.13"><title>V-Ray logo - Brandlogos.net</title><rect width="122.13" height="122.13" style="fill:#2857af"/><path d="M273.34,389.25c.83,1.17,1.78,1.83,2.61,1.78s2.05-1,2.86-2.51a99.58,99.58,0,0,0,5.91-14.11c2.29-6.42,4.64-13,9.37-19.29,5-6.52,12.89-9.06,15.77-9.77a.55.55,0,0,0,.22-1,40.66,40.66,0,0,0-38.93-6.66A13.31,13.31,0,0,0,262.31,350c-.24,10.64,1.46,25.88,11,39.28" transform="translate(-223.5 -315.08)" style="fill:#fff"/><path d="M311.19,354.77c-4.34.56-7.52,3.66-9.42,6.15-3.83,5.08-5.76,10.45-8,16.7a108.53,108.53,0,0,1-6.49,15.45c-2.44,4.54-6.35,9.18-10.74,9.47l-.71,0c-4,0-7.76-4-10.42-7.71-9.81-13.77-12.57-28.83-12.86-40.53a1.07,1.07,0,0,0-2-.54A40.2,40.2,0,0,0,245.08,386a40.7,40.7,0,0,0,80.2-9.84,40.54,40.54,0,0,0-2.68-14.55,10.6,10.6,0,0,0-7.52-6.59,10.48,10.48,0,0,0-3.88-.22" transform="translate(-223.5 -315.08)" style="fill:#fff"/><path d="M458.91,342.88c-2.13-.24-3.94-1.06-3.94-1.78,0-1.11,1.21-1.28,1.93-1.28s2.27.15,2.27,1.59a.21.21,0,0,0,.2.22H464a.21.21,0,0,0,.2-.22c0-3.52-3-6-7.31-6s-7.32,2.43-7.32,5.79c0,2.9,3.62,4.89,7,5.28,1.51.19,2.41.89,2.41,1.47,0,.91-1.09,1.4-2.12,1.4-.41,0-2.43-.08-2.43-1.59a.21.21,0,0,0-.2-.22h-4.68a.21.21,0,0,0-.2.22c0,3.92,3.78,6,7.51,6s7.51-2.05,7.51-6c0-3-2.76-4.62-5.5-4.91" transform="translate(-223.5 -315.08)" style="fill:#1c1c1c"/><path d="M398.85,335.44a6.06,6.06,0,0,0-3.71,1.25v-9.27a.22.22,0,0,0-.22-.22h-4.54a.22.22,0,0,0-.22.22V353a.22.22,0,0,0,.22.22h4.54a.22.22,0,0,0,.22-.22v-8.47c0-2.21,1.15-4.43,3.71-4.43s3.71,2.24,3.71,4.46V353a.22.22,0,0,0,.22.22h4.54a.22.22,0,0,0,.22-.22V344.6c0-5.22-3.74-9.16-8.7-9.16" transform="translate(-223.5 -315.08)" style="fill:#1c1c1c"/><path d="M422.92,344.6a4.32,4.32,0,1,1-4.32-4.46,4.4,4.4,0,0,1,4.32,4.46m-4.41-9.16a9.16,9.16,0,1,0,0,18.32,5.87,5.87,0,0,0,4.51-2.33l0,1.61a.22.22,0,0,0,.22.22h4.24a.22.22,0,0,0,.22-.22V344.6a9.2,9.2,0,0,0-9.22-9.16" transform="translate(-223.5 -315.08)" style="fill:#1c1c1c"/><path d="M443,344.6a4.26,4.26,0,1,1-4.26-4.46A4.37,4.37,0,0,1,443,344.6m-4.26-9.16A9.16,9.16,0,1,0,448,344.6a9.22,9.22,0,0,0-9.25-9.16" transform="translate(-223.5 -315.08)" style="fill:#1c1c1c"/><path d="M381,348.7a4.48,4.48,0,1,1,.87-7.71.41.41,0,0,0,.41.05l3.83-1.66a.41.41,0,0,0,.15-.63,9.15,9.15,0,1,0,2,4.69.41.41,0,0,0-.57-.32l-3.83,1.66a.41.41,0,0,0-.24.34A4.48,4.48,0,0,1,381,348.7" transform="translate(-223.5 -315.08)" style="fill:#1c1c1c"/><polygon points="181.41 57 192.24 57 173.69 101.78 165.11 101.78 146.56 57 157.39 57 169.4 86.73 181.41 57" style="fill:#1c1c1c"/><path d="M441.13,393H453a4.85,4.85,0,0,0,2-.47,5.84,5.84,0,0,0,1.81-1.27,6.79,6.79,0,0,0,1.27-1.9,5.69,5.69,0,0,0,0-4.66,6.79,6.79,0,0,0-1.27-1.9A5.87,5.87,0,0,0,455,381.5a4.85,4.85,0,0,0-2-.47H441.13Zm0,23.88h-10V372.08h22.28a14.6,14.6,0,0,1,5.85,1.18,15.52,15.52,0,0,1,4.79,3.2,15,15,0,0,1,3.24,4.73,14.38,14.38,0,0,1,1.18,5.82,14.1,14.1,0,0,1-.75,4.6,15.59,15.59,0,0,1-2.05,4,14.73,14.73,0,0,1-3.11,3.2,15.86,15.86,0,0,1-3.92,2.18l12.2,15.86h-11.7L448,401.93h-6.84Z" transform="translate(-223.5 -315.08)" style="fill:#1c1c1c"/><path d="M489,409.39a9,9,0,0,0,3.64-.75,9.31,9.31,0,0,0,4.95-4.95,9.26,9.26,0,0,0,0-7.29,9.31,9.31,0,0,0-4.95-5,9.24,9.24,0,0,0-7.28,0,9.31,9.31,0,0,0-4.95,5,9.28,9.28,0,0,0,0,7.29,9.32,9.32,0,0,0,4.95,4.95,9,9,0,0,0,3.64.75m-.19-27.15a18.62,18.62,0,0,1,7.19,1.4,18.22,18.22,0,0,1,9.83,9.5,16.63,16.63,0,0,1,1.46,6.91v16.81H498.6v-4.17a11.93,11.93,0,0,1-4.17,3.77,11.44,11.44,0,0,1-5.6,1.4,18.4,18.4,0,0,1-17-10.9,17.09,17.09,0,0,1,0-13.83,18.5,18.5,0,0,1,17-10.9" transform="translate(-223.5 -315.08)" style="fill:#1c1c1c"/><polygon points="290.73 112.97 301.13 112.97 321.5 68.19 311.36 68.19 302.58 87.57 293.87 68.19 283.73 68.19 297.54 97.85 290.73 112.97" style="fill:#1c1c1c"/><rect x="188.48" y="78" width="14.11" height="8.75" style="fill:#1c1c1c"/></svg>